<svg width="27" height="28" viewBox="0 0 27 28" fill="none" xmlns="http://www.w3.org/2000/svg">
<path d="M26.5741 11.3887H25.5001V11.3333H13.5001V16.6667H21.0354C19.9361 19.7713 16.9821 22 13.5001 22C9.08208 22 5.50008 18.418 5.50008 14C5.50008 9.58199 9.08208 5.99999 13.5001 5.99999C15.5394 5.99999 17.3947 6.76932 18.8074 8.02599L22.5787 4.25466C20.1974 2.03532 17.0121 0.666656 13.5001 0.666656C6.13675 0.666656 0.166748 6.63666 0.166748 14C0.166748 21.3633 6.13675 27.3333 13.5001 27.3333C20.8634 27.3333 26.8334 21.3633 26.8334 14C26.8334 13.106 26.7414 12.2333 26.5741 11.3887Z" fill="#FFC107"/>
<path d="M1.70408 7.79399L6.08475 11.0067C7.27008 8.07199 10.1407 5.99999 13.5001 5.99999C15.5394 5.99999 17.3947 6.76932 18.8074 8.02599L22.5787 4.25466C20.1974 2.03532 17.0121 0.666656 13.5001 0.666656C8.37875 0.666656 3.93741 3.55799 1.70408 7.79399Z" fill="#FF3D00"/>
<path d="M13.5001 27.3333C16.9441 27.3333 20.0734 26.0153 22.4394 23.872L18.3127 20.38C16.9293 21.4327 15.2385 22.0019 13.5001 22C10.0321 22 7.08741 19.7887 5.97808 16.7027L1.63008 20.0527C3.83675 24.3707 8.31808 27.3333 13.5001 27.3333Z" fill="#4CAF50"/>
<path d="M26.5741 11.3887H25.5001V11.3333H13.5001V16.6667H21.0354C20.5096 18.1443 19.5623 19.4354 18.3107 20.3807L18.3127 20.38L22.4394 23.872C22.1474 24.1373 26.8334 20.6667 26.8334 14C26.8334 13.106 26.7414 12.2333 26.5741 11.3887Z" fill="#1976D2"/>
</svg>
