<svg width="207" height="102" viewBox="0 0 207 102" fill="none" xmlns="http://www.w3.org/2000/svg">
<path fill-rule="evenodd" clip-rule="evenodd" d="M64.4753 0.0890569C67.4649 -0.176814 70.2233 0.150401 72.7278 1.10048L72.974 1.18804C75.4981 2.10555 77.5745 3.54614 79.168 5.51723C80.889 7.5626 81.8854 10.0098 82.1738 12.8172L82.205 13.1459C82.5028 16.5325 82.0127 19.7727 80.7298 22.8496L80.7301 22.85C79.4653 25.9497 77.4847 28.7489 74.815 31.2482L74.8124 31.2508C72.2776 33.6088 69.2285 35.5571 65.6809 37.104L65.336 37.2521L65.3202 37.2587C61.7266 38.7225 57.7661 39.6858 53.447 40.1572L53.028 40.2014C49.3933 40.5694 45.9469 40.7412 42.6905 40.7162C42.4728 41.5623 42.2595 42.4263 42.0503 43.3075L32.7643 83.3297L32.7636 83.3323L32.6036 83.9971C32.5966 84.0256 32.5887 84.0542 32.5794 84.0821L32.4558 84.4543C41.2362 90.6629 47.3248 91.8282 51.0575 91.4499L51.2465 91.4291C55.1827 90.9663 57.3024 88.6995 58.096 87.0853L58.1019 87.0737L58.1492 86.9803L58.1562 86.9664L58.2186 86.8511C59.5518 84.4529 62.558 83.4914 65.0623 84.7053L65.1826 84.7655C67.6807 86.0555 68.7023 89.0982 67.4587 91.6276C67.4574 91.6304 67.4561 91.6332 67.4547 91.636L67.3553 91.8338L67.3516 91.8407C65.1068 96.2343 60.1396 100.804 52.4821 101.707L52.1156 101.747C45.5426 102.413 37.7019 100.331 28.5897 94.3678C27.149 96.697 25.4362 98.4706 23.4273 99.6208C21.4055 100.84 19.1552 101.587 16.6922 101.868L16.4519 101.894C13.7324 102.169 11.1747 101.912 8.79557 101.102L8.56591 101.022L8.52959 101.008C6.248 100.105 4.33353 98.8406 2.81549 97.2035L2.66984 97.0437L2.65186 97.0233C1.21667 95.3459 0.350222 93.4766 0.0991373 91.4298L0.0767579 91.2314C-0.164518 88.8815 0.158429 86.759 1.11062 84.9158C2.02831 83.0668 3.36868 81.5729 5.1158 80.4502L5.12975 80.4414C6.93263 79.3197 8.97413 78.6516 11.232 78.423L11.7772 78.3733C14.5003 78.1538 17.2346 78.3534 19.9761 78.9688C21.0744 79.1929 22.1759 79.4533 23.2802 79.7496L32.1392 41.5609C32.2553 41.0483 32.3738 40.5403 32.4943 40.0368C29.7649 39.4838 27.2297 38.6362 24.8945 37.4878L24.6366 37.3594C24.6337 37.358 24.6306 37.3565 24.6278 37.355C21.1472 35.5612 18.016 33.0878 15.2332 29.9504L14.965 29.6446C12.071 26.3104 9.99135 21.952 8.45768 16.8993C7.987 15.7701 7.90386 14.6083 8.45768 13.5517C8.92735 12.5335 9.85778 11.7795 11.0093 11.2114L11.0684 11.1844C11.0883 11.176 11.1085 11.168 11.1289 11.1607C12.4665 10.6822 13.7431 10.4982 14.8898 10.7662L15.0123 10.7969C16.1817 11.1137 17.0009 11.9727 17.5379 13.1025L17.645 13.34L17.6754 13.4192L18.2063 14.9947C19.3624 18.4401 20.0093 20.357 21.6388 22.4377C23.5715 24.8378 25.7435 26.7493 28.1523 28.1862C30.1894 29.3476 32.5375 30.1303 35.2125 30.5196C35.9017 28.4833 36.6372 26.5428 37.4196 24.6995L37.6163 24.2402C39.6565 19.5173 41.9584 15.4677 44.5301 12.106L44.7799 11.7766C47.2883 8.50266 50.0858 5.89476 53.1781 3.97565L53.4881 3.78592C56.7977 1.7295 60.367 0.503358 64.184 0.116787L64.4753 0.0890569ZM15.8418 100.823C15.764 100.829 15.6863 100.834 15.6088 100.839C15.7683 100.829 15.9285 100.817 16.0894 100.802L15.8418 100.823ZM9.15328 100.039C9.22241 100.063 9.29181 100.086 9.3613 100.108C9.22241 100.063 9.08418 100.016 8.94673 99.9671L9.15328 100.039ZM20.183 99.9244C20.1243 99.9454 20.0653 99.9661 20.0062 99.9864C20.1329 99.9429 20.2587 99.8978 20.3837 99.851L20.183 99.9244ZM23.227 98.4324C23.1974 98.451 23.1676 98.469 23.1379 98.4872C23.2277 98.4321 23.3173 98.3759 23.4061 98.3179L23.227 98.4324ZM24.1057 97.8205C24.0484 97.8646 23.991 97.9081 23.9333 97.9508L24.1057 97.8205C24.163 97.7765 24.2203 97.7316 24.277 97.6863L24.1057 97.8205ZM24.7815 97.2597C24.7262 97.3091 24.6707 97.3577 24.6149 97.4057L24.7815 97.2597C24.8368 97.2103 24.8921 97.1601 24.9469 97.1094L24.7815 97.2597ZM25.75 96.2994C25.7295 96.3219 25.7087 96.3442 25.688 96.3665C25.7612 96.2874 25.8341 96.2071 25.9063 96.1254L25.75 96.2994ZM26.3656 95.5795C26.3153 95.6421 26.2649 95.7043 26.2141 95.7656L26.3656 95.5795C26.4159 95.5169 26.4663 95.4537 26.5161 95.3898L26.3656 95.5795ZM27.1012 94.5907C27.0535 94.6599 27.0057 94.7286 26.9574 94.7965L27.1012 94.5907C27.149 94.5215 27.1967 94.4515 27.244 94.3809L27.1012 94.5907ZM11.6888 92.7893C11.7163 92.8041 11.7439 92.8185 11.7717 92.8328C11.7059 92.7988 11.6405 92.7641 11.5761 92.7277L11.6888 92.7893ZM50.7747 92.5992C50.5848 92.6128 50.3903 92.6222 50.1913 92.6281C50.3892 92.6222 50.5825 92.613 50.7714 92.5996L50.7747 92.5992ZM52.186 92.4208C51.9904 92.4569 51.7905 92.489 51.5862 92.5164L51.7891 92.4876C51.9904 92.4573 52.1874 92.4224 52.3801 92.3836L52.186 92.4208ZM19.1551 88.5105C17.0219 87.9044 15.1013 87.6793 13.3819 87.8041L13.0407 87.8337C12.3198 87.9067 11.7865 88.1441 11.3791 88.5112L11.2991 88.5864C11.284 88.6013 11.2685 88.6158 11.2525 88.6298C10.9603 88.8864 10.7628 89.2839 10.8413 90.0488L10.8545 90.1466C10.9369 90.6328 11.2759 91.1837 12.1609 91.7681C13.1047 92.2928 14.2819 92.5197 15.756 92.3705L15.9368 92.3493C16.8375 92.2287 17.6723 91.894 18.454 91.3313L18.6025 91.22C19.2557 90.7094 19.8766 89.9508 20.445 88.8955C20.2188 88.8248 19.994 88.7562 19.7707 88.6897L19.1551 88.5105ZM18.9283 92.3694C18.9158 92.3778 18.9031 92.3859 18.8905 92.3942C18.9658 92.3441 19.0409 92.2929 19.1151 92.2395L18.9283 92.3694ZM53.4859 92.1034C53.2514 92.1755 53.0096 92.2415 52.7602 92.3004L52.9458 92.2552C53.1916 92.1928 53.4297 92.1235 53.6605 92.0483L53.4859 92.1034ZM54.1672 91.8688C54.1122 91.8898 54.0568 91.9105 54.001 91.9308L54.1672 91.8688C54.2222 91.8477 54.2767 91.8267 54.3308 91.8049L54.1672 91.8688ZM55.3988 91.3025C55.3033 91.3544 55.2061 91.4053 55.1071 91.455L55.3988 91.3025C55.4944 91.2505 55.5881 91.1978 55.6802 91.1438L55.3988 91.3025ZM56.4601 90.6337C56.3787 90.6928 56.2956 90.7513 56.2107 90.8088L56.4601 90.6337C56.5417 90.5745 56.6216 90.5151 56.6997 90.4545L56.4601 90.6337ZM57.2577 89.9846C57.1517 90.081 57.0425 90.177 56.9286 90.271L57.1477 90.0846C57.1851 90.0517 57.2213 90.0178 57.2577 89.9846ZM21.2613 89.7438C21.1779 89.888 21.0924 90.0274 21.006 90.1626C21.1425 89.949 21.2759 89.7247 21.4047 89.4887L21.2613 89.7438ZM21.6817 88.9516C21.6366 89.0441 21.5911 89.1351 21.5449 89.2246L21.6817 88.9516ZM10.2877 88.0081C10.2675 88.0311 10.2488 88.0552 10.2297 88.0789C10.2508 88.0528 10.2719 88.0265 10.2943 88.0012L10.2877 88.0081ZM13.2997 86.6862C13.1901 86.6941 13.0812 86.704 12.9728 86.7146C13.2051 86.6919 13.4401 86.6749 13.678 86.6643L13.2997 86.6862ZM5.72739 81.3919L5.58027 81.4879C5.56907 81.4953 5.55804 81.503 5.54688 81.5105C5.60651 81.4705 5.66665 81.4309 5.72739 81.3919ZM33.2372 41.8127L24.113 81.1463L24.1134 81.1467L33.2372 41.8127ZM12.3902 79.4537C12.216 79.4642 12.0419 79.4765 11.8678 79.4906C12.2158 79.4625 12.5641 79.4416 12.9127 79.4278L12.3902 79.4537ZM41.1658 42.1662C41.0945 42.4588 41.0237 42.7534 40.9534 43.0499L41.1658 42.1662C41.2372 41.8735 41.3092 41.5827 41.3815 41.2938L41.1658 42.1662ZM32.688 38.9327C32.9012 38.9761 33.1158 39.0171 33.3315 39.0568C32.9186 38.9808 32.5103 38.8986 32.1069 38.809L32.688 38.9327ZM64.2141 36.4903C64.1015 36.5336 63.9884 36.5764 63.8751 36.6187C64.1032 36.5336 64.3299 36.4465 64.5549 36.3575L64.2141 36.4903ZM20.223 33.1623C20.3203 33.24 20.4179 33.317 20.5158 33.3933C20.3201 33.2409 20.1258 33.0856 19.9328 32.9277L20.223 33.1623ZM18.232 31.4325C18.6943 31.8684 19.165 32.2871 19.6441 32.6887L19.3579 32.4457C18.8822 32.0372 18.4146 31.6118 17.9557 31.169L18.232 31.4325ZM45.3614 32.056C45.0858 32.0613 44.8116 32.0655 44.5389 32.0677L44.0821 32.0699C44.5051 32.0692 44.9315 32.0643 45.3614 32.056ZM36.0405 31.5948L35.9903 31.7488C36.0071 31.6975 36.0237 31.646 36.0405 31.5948ZM73.5658 30.8651C73.5013 30.9222 73.4364 30.9789 73.3713 31.0355C73.5178 30.9082 73.6627 30.7797 73.8057 30.6498L73.5658 30.8651ZM68.344 10.3875C67.4147 10.0905 66.361 9.97737 65.1676 10.0723L64.9269 10.0938C62.4882 10.3408 60.2146 11.18 58.0946 12.6285L57.8899 12.7708C57.8841 12.7749 57.8781 12.7789 57.8723 12.7829C55.7445 14.2242 53.7245 16.2684 51.8239 18.9488L51.6401 19.2104L51.6328 19.221C49.6756 21.9678 47.8839 25.3437 46.2665 29.3633C46.0684 29.8744 45.8728 30.396 45.6795 30.9279C47.7445 30.8785 49.8939 30.7417 52.1277 30.5156L52.6975 30.4532C55.5297 30.1212 58.0974 29.4776 60.4074 28.531L60.8696 28.3373C63.1552 27.3568 65.1069 26.1842 66.7375 24.8283C68.461 23.3296 69.6994 21.7031 70.4858 19.954L70.491 19.9434C71.2982 18.1978 71.6185 16.3475 71.4467 14.373L71.4283 14.1814C71.3284 13.209 71.0415 12.4594 70.6098 11.8824L70.5218 11.7693L70.5001 11.7419C70.0486 11.1499 69.4236 10.7141 68.5689 10.4525L68.3946 10.4025C68.3777 10.3979 68.3607 10.3928 68.344 10.3875ZM17.4091 30.6294C17.4996 30.7207 17.5905 30.8113 17.6817 30.9012L17.4091 30.6294C17.3187 30.5381 17.2288 30.4462 17.1391 30.3535L17.4091 30.6294ZM74.7456 29.7501C74.5935 29.9031 74.4387 30.0552 74.2812 30.2061L74.5156 29.9788L74.7456 29.7501ZM60.3501 29.761C60.325 29.7707 60.2997 29.7798 60.2746 29.7895C60.4635 29.7171 60.6511 29.6434 60.837 29.5673L60.3501 29.761ZM15.818 28.9123C15.9907 29.1113 16.1649 29.3077 16.3404 29.5012L16.0784 29.209C15.9914 29.1108 15.9044 29.0119 15.818 28.9123C15.7316 28.8128 15.6461 28.7124 15.5611 28.6109L15.818 28.9123ZM14.8156 27.6703C14.9771 27.8852 15.1413 28.0963 15.3084 28.3033L15.06 27.9896C14.8958 27.7786 14.7343 27.5639 14.5757 27.3452L14.8156 27.6703ZM25.9577 28.0925C26.002 28.124 26.0467 28.155 26.0912 28.1862C25.9706 28.1014 25.8503 28.0158 25.731 27.9286L25.9577 28.0925ZM25.0596 27.42C25.1334 27.478 25.2076 27.5352 25.2819 27.5922L25.0596 27.42C24.9858 27.3621 24.9123 27.3034 24.8391 27.2445L25.0596 27.42ZM14.1079 26.6775C14.1845 26.7907 14.2619 26.9029 14.3398 27.0143L14.1079 26.6775C14.0313 26.5642 13.9558 26.45 13.8805 26.3349L14.1079 26.6775ZM22.9225 25.5358C23.4031 26.0093 23.8963 26.459 24.4021 26.8851L24.1864 26.7008C23.6841 26.2679 23.1944 25.8114 22.7174 25.3311L22.9225 25.5358ZM37.861 26.5837C37.8516 26.6071 37.8425 26.6307 37.8331 26.6541C37.9337 26.402 38.035 26.1515 38.1372 25.9029L37.861 26.5837ZM67.4653 25.6847L67.1517 25.9401C67.2572 25.8557 67.3621 25.7706 67.4653 25.6847ZM12.5964 24.1628C12.8663 24.6674 13.1465 25.1575 13.4369 25.6329L13.2212 25.2735C12.936 24.7907 12.661 24.2932 12.3961 23.7815L12.5964 24.1628ZM22.111 24.7006C22.1776 24.7722 22.2445 24.8431 22.3117 24.9137L22.111 24.7006C22.0444 24.6291 21.9782 24.5571 21.9121 24.4846L22.111 24.7006ZM21.1314 23.5918C21.1954 23.6681 21.2599 23.7437 21.3244 23.8191L21.1314 23.5918C21.0674 23.5154 21.0038 23.4386 20.9403 23.3612L21.1314 23.5918ZM11.6304 22.2045C11.8146 22.6092 12.0041 23.0061 12.1991 23.3951L12.0061 23.0032C11.8785 22.7403 11.7532 22.4744 11.6304 22.2045ZM51.5844 17.3751C51.2909 17.761 51.0003 18.1601 50.7134 18.5726L51.081 18.0542C51.2477 17.8234 51.4155 17.5971 51.5844 17.3751ZM72.6152 15.1086C72.6168 15.1773 72.618 15.2459 72.6185 15.3143L72.6152 15.1086C72.6136 15.0397 72.6116 14.9708 72.6089 14.9017L72.6152 15.1086ZM72.5231 13.8432C72.5329 13.9172 72.5417 13.992 72.5495 14.0676C72.5711 14.2776 72.5876 14.4866 72.599 14.6944L72.5862 14.4861C72.5763 14.3471 72.5639 14.2076 72.5495 14.0676C72.534 13.9163 72.5145 13.7683 72.4908 13.6235L72.5231 13.8432ZM81.0526 12.9314C81.084 13.2371 81.1088 13.5414 81.1267 13.8443C81.1149 13.6445 81.1 13.444 81.0823 13.243L81.0526 12.9314ZM72.3 12.7938C72.3599 12.9914 72.4107 13.1963 72.4523 13.4086L72.4079 13.1988C72.3603 12.9915 72.3032 12.7916 72.2373 12.599L72.3 12.7938ZM45.4333 12.7763L45.1948 13.0912C45.2741 12.9856 45.3535 12.8805 45.4333 12.7763ZM11.5101 12.2155L11.3278 12.3085C11.3873 12.2772 11.4479 12.2462 11.5101 12.2155C11.5866 12.1881 11.6628 12.162 11.7379 12.1371L11.5101 12.2155ZM12.811 11.8568C12.7996 11.8589 12.7881 11.8612 12.7765 11.8634C12.8563 11.8483 12.935 11.8349 13.0128 11.8233L12.811 11.8568ZM80.6733 10.8232C80.7325 11.0476 80.7861 11.2753 80.8339 11.5062L80.784 11.276C80.7496 11.1235 80.7128 10.9728 80.6733 10.8232ZM79.89 8.68721C80.0522 9.02503 80.1986 9.37187 80.3291 9.72782L80.2491 9.51547C80.1123 9.16314 79.9594 8.81999 79.7909 8.48581L79.89 8.68721ZM79.3562 7.70134C79.3949 7.76522 79.4332 7.82938 79.4706 7.89399L79.3562 7.70134C79.3174 7.63748 79.278 7.57365 79.238 7.51051L79.3562 7.70134ZM78.8605 6.95153C78.9482 7.07353 79.0333 7.19697 79.1159 7.32187L78.99 7.13542C78.9049 7.01196 78.8172 6.89002 78.727 6.76946L78.8605 6.95153ZM78.0163 5.89268C78.0652 5.94902 78.1137 6.00574 78.1616 6.06307L78.0167 5.89231C77.9678 5.83594 77.9183 5.78022 77.8685 5.72484L78.0163 5.89268ZM77.2485 5.08449C77.4091 5.23866 77.5655 5.3972 77.7177 5.56028L77.5643 5.39864C77.4094 5.23856 77.25 5.08314 77.0867 4.93197L77.2485 5.08449ZM76.2344 4.21318C76.4118 4.34952 76.5853 4.49008 76.7543 4.63533L76.584 4.49158C76.4122 4.34927 76.236 4.21156 76.0557 4.07818L76.2344 4.21318ZM75.6896 3.8173C75.7516 3.85981 75.8131 3.90295 75.8741 3.94646L75.6896 3.8173C75.6276 3.7748 75.5654 3.73292 75.5025 3.69142L75.6896 3.8173ZM74.524 3.10653C74.5651 3.12874 74.6058 3.15145 74.6466 3.17403C74.5389 3.11435 74.4302 3.05565 74.3201 2.99853L74.524 3.10653ZM72.8129 2.32498C72.877 2.3494 72.9407 2.37427 73.0041 2.39941C72.8665 2.34484 72.7274 2.29186 72.5866 2.24069L72.8129 2.32498ZM71.4419 1.84335C71.4982 1.86078 71.5543 1.87893 71.6103 1.89699C71.4774 1.85414 71.3438 1.81259 71.2093 1.7733L71.4419 1.84335ZM64.8513 1.18257C64.668 1.19659 64.4836 1.21305 64.2981 1.23183L63.9569 1.26905C64.0704 1.25594 64.1841 1.24337 64.2981 1.23183C64.5763 1.20366 64.8522 1.18105 65.1254 1.1636L64.8513 1.18257ZM67.2588 1.13842C67.3454 1.14213 67.4317 1.1463 67.5178 1.15119C67.3455 1.14139 67.1721 1.13397 66.9976 1.12894L67.2588 1.13842ZM65.9377 1.12711C65.7587 1.1316 65.5787 1.13865 65.3976 1.14791L65.6687 1.13587C65.8486 1.129 66.0274 1.12448 66.2051 1.12237L65.9377 1.12711ZM50.5245 18.8404L50.337 19.1115C50.2834 19.1897 50.2299 19.2682 50.1767 19.3473C50.292 19.1762 50.4079 19.0073 50.5245 18.8404Z" fill="white"/>
<path fill-rule="evenodd" clip-rule="evenodd" d="M136.361 35.1494C139.349 35.208 141.804 36.1739 143.572 38.1548L143.739 38.3402C145.386 40.2211 146.255 42.8654 146.481 46.1225L146.501 46.4501L146.517 46.7844C146.654 50.1516 146.069 54.1937 144.805 58.8845L144.677 59.356L144.675 59.3618L137.628 84.3258C137.266 85.7313 137.069 86.7125 137.009 87.3108C137.012 87.5682 137.037 87.7343 137.063 87.8308C137.066 87.8405 137.069 87.849 137.071 87.8563C137.079 87.8609 137.083 87.8634 137.085 87.864C137.087 87.8648 137.088 87.8652 137.089 87.8654C137.09 87.8657 137.095 87.8658 137.103 87.8658C137.433 87.8658 137.827 87.7493 138.303 87.402C138.927 86.914 139.605 86.2854 140.244 85.4372L141.367 83.9434C143.672 80.8712 145.077 78.9509 145.933 77.6881C145.996 75.9403 146.175 74.1253 146.47 72.2439L146.528 71.8801C147.149 68.1218 148.266 64.3822 149.872 60.6629L150.03 60.3028C151.67 56.5897 153.764 53.1283 156.308 49.9201L156.317 49.9091C159.036 46.5656 162.241 43.7789 165.924 41.5532C169.643 39.2323 173.906 37.8085 178.691 37.2642L179.092 37.2219C181.102 37.0275 183.255 37.0725 185.548 37.3488C187.609 37.5399 189.637 37.914 191.633 38.469C191.983 37.5875 192.562 36.8671 193.45 36.4841C194.31 36.0483 195.412 35.7822 196.69 35.6369L197.122 35.592C198.114 35.4992 198.993 35.491 199.738 35.5858C200.547 35.6888 201.333 35.9308 201.91 36.4513C203.137 37.4179 203.215 38.993 202.843 40.5407L202.844 40.5411L192.491 85.3015L192.491 85.3019C192.215 86.5289 192.092 87.3709 192.082 87.8797C192.104 88.0418 192.134 88.142 192.156 88.1971C192.235 88.2282 192.318 88.2381 192.419 88.2266L192.513 88.2142C192.981 88.1442 193.465 87.9455 193.97 87.5768C194.629 87.0646 195.326 86.3773 196.058 85.4989L196.364 85.1271C196.978 84.3693 197.606 83.5295 198.249 82.6069L198.571 82.1384C199.132 81.2928 199.855 80.5956 200.793 80.3524C201.774 80.0254 202.811 80.3115 203.751 80.8099C205.021 81.3874 206.092 82.1316 206.57 83.1604C207.084 84.1085 207.132 85.1336 206.742 86.1443C206.731 86.1717 206.72 86.1988 206.707 86.2253C206.203 87.2756 205.417 88.5527 204.37 90.0455L203.905 90.6983C202.648 92.4397 201.08 94.0411 199.21 95.5058L198.832 95.797C198.829 95.7991 198.826 95.8014 198.823 95.8035C196.812 97.2969 194.417 98.205 191.675 98.5554L191.409 98.5875C188.602 98.9068 186.228 98.5954 184.477 97.4247C184.458 97.4125 184.44 97.3996 184.423 97.3863C182.892 96.2281 181.873 94.6957 181.378 92.8306L181.332 92.6489C181.014 91.3523 180.85 89.9915 180.833 88.5693C179.992 89.4385 179.119 90.3139 178.267 91.1306C176.66 92.6714 175.06 94.0709 173.883 94.8085L173.883 94.8089C171.319 96.4489 168.741 97.4612 166.155 97.799L165.905 97.8297C164.563 97.9823 162.18 97.9521 159.908 97.7622C158.762 97.6664 157.615 97.5277 156.613 97.3433C155.701 97.1753 154.821 96.9545 154.17 96.6511L154.043 96.5891C154.037 96.586 154.031 96.5828 154.025 96.5796C151.928 95.4664 150.209 93.7788 148.859 91.5652L148.73 91.3492C148.474 90.9161 148.237 90.4666 148.017 90.0014C147.485 90.7177 147.042 91.318 146.766 91.7057C145.584 93.4532 144.117 95.016 142.372 96.3946L142.018 96.669C142.01 96.6752 142.002 96.6813 141.993 96.6873C140.045 98.0854 137.856 98.8103 135.456 98.8542L135.223 98.856C132.714 98.856 130.634 98.1887 129.22 96.6497C129.205 96.6337 129.191 96.6172 129.178 96.6004C127.991 95.1478 127.301 93.3861 127.071 91.3642L127.05 91.1679C126.852 89.1491 126.92 87.0241 127.245 84.7972L127.25 84.7659C127.631 82.588 128.077 80.5586 128.588 78.6795L128.591 78.6685L134.984 56.1072C135.533 54.1645 135.861 52.4354 135.979 50.9147L135.983 50.8778L136.01 50.5936C136.118 49.294 135.933 48.3606 135.57 47.7031L135.489 47.5663C135.48 47.5517 135.471 47.5368 135.463 47.5218C135.207 47.0706 134.625 46.6525 133.252 46.6019L132.967 46.5968C131.301 46.5969 129.243 47.5016 126.76 49.6501L126.76 49.6504C124.347 51.7927 121.806 54.8196 119.142 58.763C116.71 62.452 114.268 66.8195 111.819 71.871L111.328 72.8915L111.326 72.897C108.721 78.289 106.297 84.2582 104.057 90.8066L102.942 95.014L102.943 95.0143C102.647 96.1896 102.064 97.1709 101.122 97.822C100.247 98.5417 99.0082 98.8202 97.6215 98.8528L97.3364 98.856C96.1951 98.856 95.1184 98.5666 94.1233 98.0008L93.9256 97.884C93.9149 97.8775 93.9041 97.8705 93.8936 97.8636C92.8335 97.1646 92.4951 96.0728 92.5648 94.8899C91.2455 96.0339 89.9544 96.8948 88.6895 97.4429L88.3476 97.5961C86.7567 98.2941 85.2177 98.7518 83.7348 98.9513L83.4179 98.9903L83.3969 98.9921L83.2638 99.0042L83.0836 99.0268L83.0679 99.0286C80.0108 99.3653 77.447 99.0597 75.5425 97.9096C73.8457 96.898 72.6617 95.4738 72.0373 93.6617L71.9786 93.4852C71.9778 93.4826 71.9769 93.4797 71.9761 93.4771C71.4041 91.6437 71.1906 89.7088 71.326 87.6823C71.4485 85.6711 71.6936 83.8054 72.0645 82.0884L72.0667 82.0782L72.8155 78.7634L72.8261 78.72L82.2321 43.6644L82.5616 42.1403L82.5652 42.1243C82.896 40.697 83.4014 39.4592 84.2573 38.7456L84.2995 38.7124L84.4642 38.5941C85.3079 38.0201 86.4288 37.7112 87.7048 37.5707L88.1065 37.5305C89.0294 37.4483 89.8509 37.4463 90.5518 37.5448C91.313 37.6517 92.0582 37.8959 92.6059 38.4113C93.6875 39.3046 93.813 40.6996 93.5418 42.0925L93.4816 42.3746C93.4792 42.3851 93.4763 42.3958 93.4736 42.4063L83.1981 81.489C82.8285 83.2517 82.5817 84.7159 82.4533 85.8893C82.3225 87.0849 82.3227 87.9101 82.406 88.4215C82.4714 88.8127 82.6045 88.9396 82.7024 89.0005C82.84 89.086 83.1531 89.1877 83.7924 89.1173L83.868 89.1096C83.8911 89.1066 83.9159 89.1037 83.9418 89.1009L84.1146 89.0775C84.9835 88.9395 85.9741 88.467 87.0925 87.537C88.2208 86.5503 89.4062 85.1266 90.6402 83.2298C91.8171 81.3248 93.0596 79.0409 94.3673 76.3735C94.9661 75.0409 96.8571 69.3306 98.7984 63.3965C100.721 57.5208 102.673 51.4888 103.341 49.7336L103.345 49.7227L103.487 49.3684C104.171 47.4161 104.829 45.4138 105.458 43.3612L105.826 41.7984L105.83 41.782L105.9 41.5098C106.266 40.1615 106.794 39.0138 107.625 38.3453L107.668 38.3128L107.839 38.1946C108.712 37.6224 109.868 37.3253 111.183 37.204L111.598 37.17C112.549 37.1022 113.394 37.1153 114.111 37.2292C114.891 37.353 115.648 37.6169 116.196 38.1523C117.354 39.1438 117.397 40.7008 117.015 42.2228L117.015 42.226L114.848 50.7593C115.316 50.0596 115.787 49.3844 116.259 48.7335L116.26 48.732L116.654 48.1964C118.626 45.545 120.61 43.2876 122.609 41.4332C124.742 39.3779 126.937 37.8073 129.196 36.7494L129.409 36.6516C131.605 35.6557 133.828 35.1465 136.069 35.1465L136.361 35.1494ZM84.4682 97.6899C84.3544 97.7133 84.241 97.7347 84.1281 97.7549C84.3396 97.7171 84.5529 97.6741 84.768 97.625L84.4682 97.6899ZM190.785 97.5235C190.705 97.5305 190.625 97.5367 190.546 97.5425C190.706 97.5309 190.867 97.517 191.031 97.5006L190.785 97.5235ZM100.317 97.0269C100.081 97.2026 99.7945 97.3446 99.4592 97.4549C99.8546 97.3249 100.181 97.1504 100.439 96.9295L100.317 97.0269ZM85.6804 97.386C85.6766 97.3871 85.6728 97.3882 85.669 97.3893C85.7755 97.358 85.8824 97.3254 85.9897 97.2915L85.6804 97.386ZM87.0543 96.916C86.9069 96.9731 86.7604 97.0283 86.6144 97.0806L86.9307 96.9642C86.9719 96.9486 87.013 96.932 87.0543 96.916ZM100.915 96.5336C100.806 96.6452 100.69 96.7475 100.566 96.8401L100.687 96.7442C100.806 96.6453 100.917 96.5368 101.021 96.4191L100.915 96.5336ZM165.266 96.761C164.99 96.7795 164.681 96.7922 164.347 96.7993C164.792 96.7898 165.194 96.7704 165.533 96.7405L165.266 96.761ZM87.5694 96.7091C87.5487 96.7178 87.5278 96.7261 87.5071 96.7347C87.635 96.6816 87.7636 96.6271 87.8926 96.5705L87.5694 96.7091ZM185.237 96.58C185.283 96.6086 185.33 96.6365 185.377 96.6639C185.284 96.6098 185.193 96.5535 185.105 96.4946L185.237 96.58ZM184.168 95.655C184.38 95.8807 184.609 96.0944 184.854 96.2965L184.733 96.1943C184.493 95.9884 184.27 95.7707 184.063 95.5412L184.168 95.655ZM89.016 96.0374C88.9622 96.0664 88.9085 96.0947 88.855 96.1224L89.016 96.0374C89.0698 96.0084 89.1241 95.9787 89.1782 95.9484L89.016 96.0374ZM169.267 95.8802C169.117 95.9346 168.967 95.9867 168.818 96.0363C168.967 95.9867 169.117 95.9349 169.266 95.8805L169.267 95.8802ZM129.954 95.7703C129.982 95.8067 130.011 95.8428 130.04 95.8787C129.978 95.802 129.917 95.7243 129.858 95.6455L129.954 95.7703ZM183.62 94.995C183.728 95.1427 183.842 95.2862 183.962 95.4255L183.863 95.3077C183.779 95.2056 183.698 95.1014 183.62 94.995ZM129.585 95.2599C129.614 95.3036 129.643 95.347 129.673 95.3901L129.585 95.2599C129.556 95.2161 129.528 95.1718 129.499 95.1274L129.585 95.2599ZM172.326 94.4418C172.01 94.6234 171.696 94.7946 171.381 94.9552L171.617 94.833C171.932 94.6672 172.247 94.4906 172.563 94.3039L172.326 94.4418ZM183.247 94.4294C183.322 94.555 183.4 94.6777 183.481 94.798C183.371 94.6354 183.267 94.4681 183.171 94.2959L183.247 94.4294ZM94.5687 91.2441L93.9223 93.6942L94.5694 91.2438L94.5687 91.2441ZM175.176 92.4234C174.817 92.7279 174.475 93.0052 174.156 93.248L174.4 93.0597C174.73 92.8002 175.081 92.508 175.448 92.1902L175.176 92.4234ZM128.14 90.7016V90.6979C128.139 90.6852 128.138 90.6724 128.137 90.6596C128.138 90.6736 128.139 90.6876 128.14 90.7016ZM83.6398 90.2546C83.5629 90.2589 83.4878 90.2604 83.4146 90.2608C83.4864 90.2605 83.56 90.2591 83.6354 90.255L83.6398 90.2546ZM83.9164 90.2312C83.9432 90.2283 83.9703 90.2258 83.9968 90.2236L83.9164 90.2312ZM202.989 90.0448L203.42 89.4409C203.427 89.4305 203.434 89.4199 203.441 89.4096C203.296 89.6164 203.146 89.8282 202.989 90.0448ZM191.368 89.0188C191.416 89.0651 191.468 89.1039 191.524 89.1359C191.449 89.0928 191.38 89.0369 191.319 88.9677L191.368 89.0188ZM180.804 86.9733C180.128 87.6875 179.417 88.4197 178.703 89.1315L179.313 88.5185C179.82 88.0038 180.321 87.4838 180.804 86.9733ZM137.691 88.9195C137.651 88.9285 137.612 88.9368 137.573 88.944L137.691 88.9195C137.73 88.9105 137.769 88.9008 137.808 88.89L137.691 88.9195ZM72.4182 88.4638C72.4157 88.5678 72.4146 88.6714 72.4141 88.7747C72.4152 88.555 72.4205 88.3339 72.4306 88.1113L72.4182 88.4638ZM194.651 88.4704L194.524 88.5612C194.467 88.6005 194.41 88.638 194.353 88.6743C194.453 88.6107 194.552 88.5429 194.651 88.4704ZM135.887 87.5086C135.888 87.538 135.89 87.567 135.892 87.5954C135.887 87.5287 135.884 87.4593 135.882 87.3871L135.887 87.5086ZM183.812 47.6524C181.916 47.6104 180.204 47.6703 178.673 47.8286L178.369 47.8618C175.515 48.1864 172.979 49.0944 170.741 50.5786L170.525 50.7239C168.189 52.3252 166.175 54.3249 164.482 56.7318L164.482 56.7322C162.941 58.9374 161.669 61.3535 160.67 63.9836L160.474 64.5123C160.473 64.5158 160.472 64.5194 160.47 64.5229C159.494 67.136 158.8 69.7092 158.386 72.2428L158.307 72.7489C157.904 75.4564 157.832 77.8528 158.074 79.9478L158.111 80.2521C158.303 81.7104 158.642 82.9531 159.111 83.9953C161.113 86.6418 164.417 87.0812 165.818 86.9536C167.984 86.7039 170.507 85.3004 173.393 82.454C176.26 79.5491 179.21 75.4438 182.234 70.1003L182.239 70.0912C184.796 65.6722 186.093 60.8498 187.808 54.4375L188.285 52.6606C188.445 52.0637 188.61 51.4542 188.781 50.8319L189.336 48.3664C187.381 47.9189 185.542 47.6826 183.817 47.6524H183.812ZM141.145 86.1093L141.011 86.2844C140.892 86.4355 140.773 86.58 140.653 86.7183C140.819 86.5274 140.983 86.3248 141.145 86.1093C141.541 85.584 141.915 85.0868 142.268 84.6163L141.145 86.1093ZM197.559 85.4328C197.347 85.7023 197.136 85.9628 196.926 86.2144L196.706 86.4731C196.779 86.3883 196.852 86.3024 196.926 86.2144C197.24 85.837 197.558 85.4395 197.879 85.022L197.559 85.4328ZM191.289 85.5266C191.257 85.6781 191.228 85.8244 191.2 85.9656L191.289 85.5266C191.321 85.3752 191.355 85.2185 191.392 85.0567L191.289 85.5266ZM182.185 85.4898C182.167 85.6033 182.152 85.7127 182.137 85.8192C182.152 85.7126 182.168 85.6031 182.186 85.4894L182.185 85.4898ZM128.36 84.9581C128.407 84.6896 128.455 84.4235 128.504 84.1598L128.36 84.9581ZM205.859 85.0665C205.849 85.1553 205.834 85.2447 205.814 85.3347L205.841 85.2004C205.848 85.1558 205.854 85.1109 205.859 85.0665ZM173.094 84.2762C172.667 84.657 172.245 85.0091 171.827 85.3332C172.334 84.9399 172.848 84.5055 173.368 84.0288L173.094 84.2762ZM147.049 78.045C146.317 79.145 145.144 80.7673 143.267 83.2827L144.148 82.0976C145.523 80.2411 146.439 78.9617 147.049 78.045ZM174.723 82.6941C174.548 82.88 174.373 83.0617 174.197 83.2392L174.475 82.9546C174.558 82.8688 174.641 82.7819 174.723 82.6941ZM204.61 82.5807C204.703 82.6489 204.789 82.7183 204.87 82.7879C204.744 82.6797 204.604 82.5725 204.449 82.4675L204.61 82.5807ZM202.346 81.4357C202.627 81.5154 202.929 81.6417 203.253 81.8152C203.64 81.9901 203.982 82.1705 204.277 82.3559L204.094 82.245C203.843 82.0983 203.563 81.9551 203.253 81.8152C202.876 81.6128 202.527 81.4743 202.207 81.3996L202.346 81.4357ZM92.7405 81.8907C92.6914 81.9772 92.6421 82.063 92.5931 82.1483C92.7195 81.9281 92.8469 81.7042 92.9746 81.4762L92.7405 81.8907ZM201.686 81.3339C201.768 81.3344 201.853 81.3401 201.94 81.351L201.811 81.3386C201.769 81.3358 201.727 81.3342 201.686 81.3339ZM109.332 74.4816C109.282 74.5893 109.233 74.6976 109.184 74.8056C109.243 74.6757 109.302 74.5457 109.362 74.4163L109.332 74.4816ZM147.583 72.4161L147.474 73.1462C147.442 73.3752 147.412 73.6032 147.383 73.83C147.442 73.3636 147.509 72.892 147.583 72.4161ZM183.216 70.6498L183.056 70.9318C183.109 70.8382 183.163 70.7441 183.216 70.6498ZM150.908 61.1055L150.609 61.8104C150.601 61.8311 150.593 61.8518 150.584 61.8725C150.69 61.6168 150.798 61.3611 150.908 61.1055ZM163.241 56.5519C162.93 57.0145 162.629 57.4857 162.34 57.9654L162.633 57.4886C162.831 57.1727 163.034 56.8602 163.241 56.5519ZM111.875 57.8906V57.8921C111.984 57.6921 112.093 57.4934 112.202 57.2963L111.875 57.8906ZM188.897 54.7258L188.372 56.6829C188.544 56.0451 188.719 55.3932 188.897 54.7258ZM115.168 52.3198C114.393 53.5196 113.623 54.7898 112.857 56.1301L113.185 55.5602C113.953 54.2399 114.725 52.9899 115.501 51.8101L115.168 52.3198ZM164.215 55.1961C163.991 55.4887 163.771 55.7877 163.557 56.0926L163.718 55.8656C163.881 55.639 164.047 55.4158 164.215 55.1961ZM121.69 53.4071C121.225 53.9802 120.757 54.5817 120.286 55.2107C120.84 54.4713 121.389 53.7703 121.935 53.1083L121.69 53.4071ZM122.422 52.5252C122.341 52.6207 122.26 52.717 122.179 52.8142L122.422 52.5252C122.503 52.4297 122.585 52.3355 122.666 52.2417L122.422 52.5252ZM156.954 50.918C156.906 50.9787 156.86 51.0399 156.813 51.1008C156.938 50.938 157.065 50.7755 157.193 50.614L156.954 50.918ZM137.116 48.9838C137.185 49.5563 137.184 50.1876 137.115 50.8778C137.195 50.083 137.184 49.3663 137.079 48.7277L137.116 48.9838ZM117.173 49.3895C117.061 49.5437 116.949 49.6995 116.837 49.8566L117.173 49.3895ZM125.065 49.6898C125.028 49.7261 124.991 49.763 124.953 49.7997C125.07 49.6857 125.186 49.5734 125.302 49.4632L125.065 49.6898ZM145.41 47.8159C145.409 48.0395 145.406 48.2664 145.399 48.4963L145.407 48.1541C145.409 48.0407 145.409 47.9277 145.41 47.8159ZM189.775 47.3167C189.924 47.3518 190.074 47.3877 190.225 47.4251L189.775 47.3167C189.626 47.2817 189.477 47.2476 189.329 47.2149L189.775 47.3167ZM187.578 46.8789C187.722 46.9022 187.866 46.9265 188.011 46.9522L187.578 46.8789C187.434 46.8555 187.291 46.8331 187.149 46.8121L187.578 46.8789ZM177.66 46.8223C177.612 46.8292 177.564 46.8367 177.516 46.8438C177.66 46.8223 177.804 46.8019 177.949 46.7833L177.66 46.8223ZM129.017 46.6527C128.948 46.6914 128.879 46.7313 128.809 46.772C128.953 46.688 129.096 46.608 129.239 46.5322L129.017 46.6527ZM182.327 46.5195C181.1 46.5278 179.949 46.5823 178.876 46.6826L179.2 46.6541C180.398 46.554 181.689 46.5091 183.073 46.5202L182.327 46.5195ZM185.083 46.5866C185.347 46.6049 185.613 46.6274 185.882 46.6545L185.466 46.6158C185.338 46.605 185.21 46.5954 185.083 46.5866ZM184.24 46.5425C184.501 46.5515 184.764 46.5651 185.03 46.583C184.628 46.5559 184.23 46.5388 183.837 46.5319L184.24 46.5425ZM133.284 45.4818C133.367 45.4848 133.449 45.4891 133.529 45.4946C133.399 45.4857 133.266 45.4799 133.13 45.4774L133.284 45.4818ZM165.517 43.1324C164.484 43.8023 163.492 44.5203 162.542 45.2855C163.593 44.4396 164.694 43.6516 165.845 42.9222L165.517 43.1324ZM121.801 43.8045C122.327 43.2576 122.852 42.7405 123.378 42.253L122.99 42.6179C122.593 42.9965 122.197 43.3921 121.801 43.8045ZM166.509 42.511C166.397 42.5785 166.286 42.6465 166.176 42.715L166.509 42.511ZM84.7841 39.7938C84.7828 39.7953 84.7814 39.7967 84.7801 39.7982C84.8124 39.7628 84.8452 39.7291 84.8784 39.6971L84.7841 39.7938ZM108.226 39.3104C108.191 39.3423 108.158 39.3761 108.124 39.4114C108.192 39.3395 108.262 39.2746 108.334 39.217L108.226 39.3104ZM201.913 38.9327C201.916 39.0481 201.914 39.1681 201.906 39.2929L201.912 39.1801C201.915 39.0954 201.916 39.0129 201.913 38.9327ZM91.4389 38.9543C91.4665 38.9683 91.4934 38.9825 91.5196 38.9973L91.4389 38.9543C91.4112 38.9402 91.3828 38.9263 91.3538 38.913L91.4389 38.9543ZM90.97 38.774C91.0048 38.784 91.039 38.7942 91.0724 38.805L90.97 38.774C90.9353 38.7641 90.8998 38.7543 90.8636 38.7452L90.97 38.774ZM90.6372 38.6952C90.6764 38.7027 90.7148 38.7106 90.7524 38.7189L90.6372 38.6952C90.5982 38.6877 90.5585 38.6804 90.518 38.6737L90.6372 38.6952ZM115.006 38.6642C115.014 38.6687 115.022 38.6735 115.03 38.6781C114.994 38.6583 114.957 38.6388 114.919 38.6204L115.006 38.6642ZM90.1335 38.6244C90.1784 38.6287 90.2225 38.6332 90.266 38.6383L90.1335 38.6244C90.0438 38.6159 89.9512 38.6089 89.8558 38.6036L90.1335 38.6244ZM177.968 38.4847C177.825 38.5044 177.684 38.525 177.542 38.5463C177.821 38.5042 178.102 38.4653 178.385 38.4296L177.968 38.4847ZM129.277 37.9563C129.148 38.0205 129.02 38.0866 128.891 38.1545C129.152 38.0166 129.414 37.8864 129.676 37.7637L129.277 37.9563ZM196.313 36.8165C196.476 36.7924 196.644 36.7702 196.818 36.7504L196.59 36.7782C196.496 36.7902 196.403 36.8031 196.313 36.8165ZM197.999 36.653C197.877 36.6587 197.752 36.6662 197.624 36.6753L197.999 36.653C198.121 36.6474 198.24 36.6436 198.355 36.6414L197.999 36.653ZM158.24 84.7089L158.243 84.7133C158.265 84.7418 158.288 84.7696 158.31 84.7976C158.287 84.7682 158.263 84.7389 158.24 84.7089ZM85.1026 39.518C85.1097 39.5131 85.117 39.5086 85.1242 39.5038C85.1168 39.5087 85.1092 39.5134 85.1018 39.5184L85.1026 39.518Z" fill="white"/>
<path fill-rule="evenodd" clip-rule="evenodd" d="M92.4107 16.8369C96.8865 16.837 100.518 20.4405 100.518 24.8893L100.515 25.0972C100.404 29.4497 96.8165 32.9415 92.4107 32.9416C88.0049 32.9415 84.4172 29.4497 84.3061 25.0972L84.3035 24.8893C84.3035 20.4405 87.9349 16.837 92.4107 16.8369ZM91.8821 31.801C91.9974 31.8096 92.1134 31.8156 92.2302 31.8185L92.4107 31.8207C92.2329 31.8207 92.0565 31.814 91.8821 31.801ZM85.4481 25.3844C85.4449 25.3383 85.4421 25.2921 85.4397 25.2457L85.4393 25.2403C85.4418 25.2884 85.4447 25.3365 85.4481 25.3844ZM85.4434 24.4748C85.4352 24.6119 85.4305 24.7501 85.4305 24.8893L85.4327 24.7101C85.4348 24.6313 85.4387 24.5529 85.4434 24.4748ZM99.3711 24.3642C99.3667 24.3053 99.3613 24.2465 99.3553 24.188C99.3669 24.302 99.3758 24.4168 99.3817 24.5324L99.3711 24.3642Z" fill="white"/>
</svg>
